# xmcd CD database file
#
# Track frame offsets:
#	182
#	11937
#	25172
#	37632
#	53985
#	68272
#	84165
#	96862
#	111812
#	123652
#	133835
#	144165
#	156792
#	170177
#	183455
#
# Disc length: 2579 seconds
#
# Revision: 1
# Processed by: cddbd v1.5.2PL0 Copyright (c) Steve Scherf et al.
# Submitted via: CDex 1.70beta2
#
DISCID=c10a110f
DTITLE=Various Artist - Quei Romantici Scatenati Anni '50 - 19B - Abbandonati Amore
DYEAR=1950
DGENRE=Pop/Rock
TTITLE0=Paul Anka - Abbandonati amore
TTITLE1=Claudio Villa - Brasil
TTITLE2=Nilla Pizzi - Senza catene
TTITLE3=Jula de Palma - Dove e quando
TTITLE4=Tonina Torielli - Verde luna
TTITLE5=Katyna Ranieri - Fontana di trevi
TTITLE6=Arturo Testa - Maria
TTITLE7=Marisa Colomber - Sinceri
TTITLE8=Caterina Valente - Arcobaleno
TTITLE9=Flo Sandon's - Parole d'amore sulla sabbia
TTITLE10=Carla Boni, Duo Fasano - Che sara' sara'
TTITLE11=Gino Latilla, Carla Boni - Splendida Copenhagen
TTITLE12=Marino Barretto - Felicita'
TTITLE13=Carla Boni - Johnny Guitar
TTITLE14=Natalino Otto - Laura
EXTD=YEAR: 1950
EXTT0=
EXTT1=
EXTT2=
EXTT3=
EXTT4=
EXTT5=
EXTT6=
EXTT7=
EXTT8=
EXTT9=
EXTT10=
EXTT11=
EXTT12=
EXTT13=
EXTT14=
PLAYORDER=
